<svg width="99" height="159" viewBox="0 0 99 159" fill="none" xmlns="http://www.w3.org/2000/svg">
<g clip-path="url(#clip0_2_25)">
<path d="M49.47 34.6281C51.6103 34.6281 53.7025 33.6127 55.4821 31.7102C57.2617 29.8077 58.6488 27.1036 59.4678 23.9399C60.2869 20.7761 60.5012 17.2948 60.0836 13.9362C59.6661 10.5776 58.6354 7.49257 57.122 5.07116C55.6086 2.64974 53.6804 1.00074 51.5812 0.33267C49.482 -0.335397 47.3062 0.00747915 45.3288 1.31794C43.3514 2.6284 41.6613 4.84759 40.4722 7.69487C39.2831 10.5422 38.6484 13.8896 38.6484 17.314C38.6484 21.906 39.7886 26.3099 41.818 29.5569C43.8474 32.804 46.5999 34.6281 49.47 34.6281V34.6281ZM83.4806 138.512H15.4594C14.6394 138.512 13.8529 139.034 13.2731 139.961C12.6933 140.889 12.3675 142.147 12.3675 143.459V153.353C12.3675 154.665 12.6933 155.923 13.2731 156.851C13.8529 157.779 14.6394 158.3 15.4594 158.3H83.4806C84.3006 158.3 85.0871 157.779 85.6669 156.851C86.2468 155.923 86.5725 154.665 86.5725 153.353V143.459C86.5725 142.147 86.2468 140.889 85.6669 139.961C85.0871 139.034 84.3006 138.512 83.4806 138.512ZM97.5622 56.9385L92.0529 52.0164C90.6151 50.4705 88.7851 51.2558 87.7455 53.4633C86.7098 55.6816 85.3039 57.3873 83.6894 58.3844C82.0749 59.3814 80.3173 59.6293 78.6187 59.0997C74.147 57.7733 71.1131 50.993 71.1131 43.718C71.1131 42.6192 70.8403 41.5654 70.3547 40.7884C69.8691 40.0115 69.2104 39.575 68.5237 39.575H61.0317C59.8722 39.575 58.7881 40.8117 58.5466 42.639C58.1081 45.9709 56.9668 48.9602 55.3142 51.1055C53.6616 53.2508 51.5982 54.4217 49.47 54.4217C47.3419 54.4217 45.2784 53.2508 43.6258 51.1055C41.9732 48.9602 40.8319 45.9709 40.3934 42.639C40.1519 40.8086 39.0755 39.575 37.9083 39.575H30.4163C29.7296 39.575 29.0709 40.0115 28.5853 40.7884C28.0997 41.5654 27.8269 42.6192 27.8269 43.718C27.8269 51.6608 24.1553 58.7905 19.1948 59.3285C17.6534 59.5024 16.1096 59.0509 14.7063 58.0159C13.3031 56.9808 12.0859 55.3958 11.1675 53.4077C10.1472 51.2156 8.32101 50.4859 6.89875 52.004L1.37782 56.9509C0.75056 57.6195 0.297554 58.6317 0.103968 59.7972C-0.0896188 60.9627 -0.0104525 62.2011 0.326584 63.2798L20.1436 128.619H78.7964L98.6134 63.2674C98.9505 62.1888 99.0296 60.9503 98.836 59.7848C98.6425 58.6194 98.1894 57.6072 97.5622 56.9385V56.9385Z" fill="#CC00DD"/>
</g>
<defs>
<clipPath id="clip0_2_25">
<rect width="98.94" height="158.3" fill="white"/>
</clipPath>
</defs>
</svg>
