<svg width="99" height="159" viewBox="0 0 99 159" fill="none" xmlns="http://www.w3.org/2000/svg">
<g clip-path="url(#clip0_2_23)">
<path d="M2.4735 89.0067C2.4735 104.973 9.31891 111.833 19.788 115.163V128.619H79.152V115.163C89.6211 111.833 96.4665 104.96 96.4665 89.0067C96.4665 79.5427 93.1489 68.2607 88.2143 57.2972L57.1997 88.3172C56.7359 88.7807 56.107 89.0411 55.4512 89.0411C54.7955 89.0411 54.1666 88.7807 53.7028 88.3172L50.2059 84.8204C49.7423 84.3565 49.482 83.7277 49.482 83.0719C49.482 82.4162 49.7423 81.7873 50.2059 81.3235L83.5641 47.9538C77.133 36.2328 69.1962 25.6619 61.652 19.3268C65.9806 18.2694 69.258 14.5469 69.258 9.89375C69.258 7.26976 68.2156 4.75325 66.3601 2.89781C64.5046 1.04237 61.9881 0 59.364 0L39.576 0C36.9519 0 34.4354 1.04237 32.5799 2.89781C30.7244 4.75325 29.682 7.26976 29.682 9.89375C29.682 14.5314 32.9594 18.2694 37.288 19.3268C20.966 33.0204 2.4735 66.319 2.4735 89.0067ZM93.993 138.513H4.947C3.63497 138.513 2.37669 139.034 1.44894 139.961C0.5212 140.889 0 142.147 0 143.459L0 153.353C0 154.665 0.5212 155.923 1.44894 156.851C2.37669 157.779 3.63497 158.3 4.947 158.3H93.993C95.305 158.3 96.5633 157.779 97.4911 156.851C98.4188 155.923 98.94 154.665 98.94 153.353V143.459C98.94 142.147 98.4188 140.889 97.4911 139.961C96.5633 139.034 95.305 138.513 93.993 138.513Z" fill="#996677"/>
</g>
<defs>
<clipPath id="clip0_2_23">
<rect width="98.94" height="158.3" fill="white"/>
</clipPath>
</defs>
</svg>
