<svg width="99" height="159" viewBox="0 0 99 159" fill="none" xmlns="http://www.w3.org/2000/svg">
<g clip-path="url(#clip0_2_27)">
<path d="M88.3393 138.513H10.6007C9.66356 138.513 8.76478 139.034 8.10211 139.961C7.43943 140.889 7.06715 142.147 7.06715 143.459V153.353C7.06715 154.665 7.43943 155.923 8.10211 156.851C8.76478 157.779 9.66356 158.3 10.6007 158.3H88.3393C89.2765 158.3 90.1752 157.779 90.8379 156.851C91.5006 155.923 91.8729 154.665 91.8729 153.353V143.459C91.8729 142.147 91.5006 140.889 90.8379 139.961C90.1752 139.034 89.2765 138.513 88.3393 138.513ZM91.8729 49.4688H56.5372V34.6281H65.3711C65.8397 34.6281 66.2891 34.3675 66.6204 33.9037C66.9517 33.4398 67.1379 32.8107 67.1379 32.1547V17.3141C67.1379 16.6581 66.9517 16.0289 66.6204 15.5651C66.2891 15.1012 65.8397 14.8406 65.3711 14.8406H56.5372V2.47344C56.5372 1.81744 56.351 1.18831 56.0197 0.724453C55.6883 0.260594 55.2389 0 54.7704 0L44.1697 0C43.7011 0 43.2517 0.260594 42.9203 0.724453C42.589 1.18831 42.4029 1.81744 42.4029 2.47344V14.8406H33.5689C33.1004 14.8406 32.651 15.1012 32.3196 15.5651C31.9883 16.0289 31.8022 16.6581 31.8022 17.3141V32.1547C31.8022 32.8107 31.9883 33.4398 32.3196 33.9037C32.651 34.3675 33.1004 34.6281 33.5689 34.6281H42.4029V49.4688H7.06715C5.95917 49.47 4.86692 49.8359 3.87856 50.5369C2.8902 51.238 2.03343 52.2545 1.37741 53.5045C0.721389 54.7546 0.2845 56.203 0.102011 57.7329C-0.080479 59.2629 -0.00345675 60.8315 0.32686 62.3121L16.4664 128.619H82.4736L98.6132 62.3121C98.9435 60.8315 99.0205 59.2629 98.838 57.7329C98.6555 56.203 98.2186 54.7546 97.5626 53.5045C96.9066 52.2545 96.0498 51.238 95.0615 50.5369C94.0731 49.8359 92.9809 49.47 91.8729 49.4688V49.4688Z" fill="#5566EE"/>
</g>
<defs>
<clipPath id="clip0_2_27">
<rect width="98.94" height="158.3" fill="white"/>
</clipPath>
</defs>
</svg>
