<svg width="99" height="159" viewBox="0 0 99 159" fill="none" xmlns="http://www.w3.org/2000/svg">
<g clip-path="url(#clip0_1_21)">
<path d="M4.89543 82.686L15.364 88.1529C16.3703 88.6784 17.456 88.9617 18.557 88.9861C19.658 89.0106 20.752 88.7756 21.7745 88.2952L25.0673 86.7453C26.2183 86.2044 27.2505 85.3656 28.0874 84.2912C28.9243 83.2168 29.5442 81.9345 29.901 80.5398L32.2766 71.2618C32.4927 70.2449 32.8937 69.2949 33.4518 68.4772C34.01 67.6594 34.7122 66.9933 35.5101 66.5244L41.2095 63.1704V78.4057C41.2099 81.1044 40.5707 83.7499 39.3633 86.0457C38.156 88.3415 36.4283 90.1969 34.3739 91.404L19.6308 100.077C16.2083 102.089 13.3304 105.182 11.3194 109.008C9.30846 112.834 8.24389 117.242 8.24496 121.738V126.134H90.6589V68.0138C90.6589 35.9267 68.5211 9.89375 41.2095 9.89375H3.09183C2.27182 9.89375 1.48539 10.2765 0.905547 10.9577C0.325708 11.6389 -4.24409e-05 12.5629 -4.24409e-05 13.5263C-0.00046194 14.3229 0.157466 15.1086 0.461162 15.8208L4.12246 24.4238L1.80355 27.1481C1.2298 27.8245 0.775188 28.6272 0.465711 29.5102C0.156233 30.3932 -0.00203563 31.3392 -4.24409e-05 32.2942V73.8288C-0.00102044 75.7033 0.460984 77.538 1.32994 79.1101C2.19889 80.6823 3.43746 81.9245 4.89543 82.686V82.686ZM13.3981 38.9538C14.4173 38.9538 15.4136 39.3088 16.261 39.9741C17.1084 40.6393 17.7689 41.5848 18.1589 42.6911C18.549 43.7973 18.651 45.0146 18.4522 46.189C18.2534 47.3634 17.7626 48.4422 17.0419 49.2889C16.3212 50.1356 15.403 50.7122 14.4034 50.9458C13.4038 51.1794 12.3677 51.0595 11.4261 50.6012C10.4845 50.143 9.67965 49.367 9.11342 48.3714C8.54718 47.3758 8.24496 46.2053 8.24496 45.0079C8.24496 43.4023 8.78787 41.8624 9.75427 40.727C10.7207 39.5916 12.0314 38.9538 13.3981 38.9538V38.9538ZM94.8175 135.82H4.12246C3.0291 135.82 1.98053 136.331 1.20741 137.239C0.434291 138.147 -4.24409e-05 139.379 -4.24409e-05 140.664V150.35C-4.24409e-05 151.635 0.434291 152.867 1.20741 153.775C1.98053 154.683 3.0291 155.194 4.12246 155.194H94.8175C95.9108 155.194 96.9594 154.683 97.7325 153.775C98.5056 152.867 98.94 151.635 98.94 150.35V140.664C98.94 139.379 98.5056 138.147 97.7325 137.239C96.9594 136.331 95.9108 135.82 94.8175 135.82Z" fill="#777744"/>
</g>
<defs>
<clipPath id="clip0_1_21">
<rect width="98.94" height="158.3" fill="white"/>
</clipPath>
</defs>
</svg>
