<svg width="99" height="159" viewBox="0 0 99 159" fill="none" xmlns="http://www.w3.org/2000/svg">
<g clip-path="url(#clip0_1_15)">
<path d="M94.8175 9.89375H80.3887C79.2954 9.89375 78.2468 10.4149 77.4737 11.3427C76.7006 12.2704 76.2662 13.5286 76.2662 14.8406V29.6813H63.8987V14.8406C63.8987 13.5286 63.4644 12.2704 62.6913 11.3427C61.9182 10.4149 60.8696 9.89375 59.7762 9.89375H39.1637C38.0704 9.89375 37.0218 10.4149 36.2487 11.3427C35.4756 12.2704 35.0412 13.5286 35.0412 14.8406V29.6813H22.6995V14.8406C22.6995 13.5286 22.2652 12.2704 21.4921 11.3427C20.7189 10.4149 19.6704 9.89375 18.577 9.89375H4.1225C3.02914 9.89375 1.98057 10.4149 1.20745 11.3427C0.434334 12.2704 0 13.5286 0 14.8406L0 69.2563L16.49 79.15C16.49 94.0927 16.0932 108.522 13.0864 128.619H85.8536C82.8468 108.522 82.45 93.9041 82.45 79.15L98.94 69.2563V14.8406C98.94 13.5286 98.5057 12.2704 97.7325 11.3427C96.9594 10.4149 95.9109 9.89375 94.8175 9.89375V9.89375ZM57.715 98.9375H41.225V79.15C41.225 76.526 42.0937 74.0095 43.6399 72.1541C45.1861 70.2986 47.2833 69.2563 49.47 69.2563C51.6567 69.2563 53.7539 70.2986 55.3001 72.1541C56.8463 74.0095 57.715 76.526 57.715 79.15V98.9375ZM94.8175 138.513H4.1225C3.02914 138.513 1.98057 139.034 1.20745 139.961C0.434334 140.889 0 142.147 0 143.459L0 153.353C0 154.665 0.434334 155.923 1.20745 156.851C1.98057 157.779 3.02914 158.3 4.1225 158.3H94.8175C95.9109 158.3 96.9594 157.779 97.7325 156.851C98.5057 155.923 98.94 154.665 98.94 153.353V143.459C98.94 142.147 98.5057 140.889 97.7325 139.961C96.9594 139.034 95.9109 138.513 94.8175 138.513Z" fill="#AA6600"/>
</g>
<defs>
<clipPath id="clip0_1_15">
<rect width="98.94" height="158.3" fill="white"/>
</clipPath>
</defs>
</svg>
